<svg xmlns="http://www.w3.org/2000/svg" viewBox="0 0 32 32" width="32" height="32">
  <!-- Background circle -->
  <circle cx="16" cy="16" r="15" fill="#2563eb" stroke="#1d4ed8" stroke-width="1"/>
  
  <!-- Receipt paper -->
  <rect x="8" y="6" width="12" height="18" rx="1" fill="white" stroke="#1e293b" stroke-width="0.5"/>
  
  <!-- Receipt lines -->
  <line x1="10" y1="10" x2="18" y2="10" stroke="#64748b" stroke-width="0.5"/>
  <line x1="10" y1="12" x2="18" y2="12" stroke="#64748b" stroke-width="0.5"/>
  <line x1="10" y1="14" x2="18" y2="14" stroke="#64748b" stroke-width="0.5"/>
  <line x1="10" y1="16" x2="18" y2="16" stroke="#64748b" stroke-width="0.5"/>
  <line x1="10" y1="18" x2="18" y2="18" stroke="#64748b" stroke-width="0.5"/>
  <line x1="10" y1="20" x2="18" y2="20" stroke="#64748b" stroke-width="0.5"/>
  
  <!-- Printer -->
  <rect x="20" y="12" width="8" height="6" rx="1" fill="#f1f5f9" stroke="#475569" stroke-width="0.5"/>
  <rect x="21" y="13" width="6" height="4" fill="#e2e8f0"/>
  <circle cx="24" cy="15" r="1" fill="#475569"/>
  
  <!-- Printer paper output -->
  <rect x="22" y="18" width="4" height="2" fill="white" stroke="#475569" stroke-width="0.5"/>
  
  <!-- Print icon -->
  <path d="M6 8 L10 8 L10 6 L22 6 L22 8 L26 8 L26 20 L22 20 L22 22 L10 22 L10 20 L6 20 Z" fill="#f59e0b" stroke="#d97706" stroke-width="0.5"/>
  <rect x="8" y="10" width="16" height="10" fill="white" stroke="#d97706" stroke-width="0.5"/>
  <line x1="8" y1="12" x2="24" y2="12" stroke="#d97706" stroke-width="0.5"/>
  <line x1="8" y1="14" x2="24" y2="14" stroke="#d97706" stroke-width="0.5"/>
  <line x1="8" y1="16" x2="24" y2="16" stroke="#d97706" stroke-width="0.5"/>
  <line x1="8" y1="18" x2="24" y2="18" stroke="#d97706" stroke-width="0.5"/>
</svg> 